<svg width="1000" height="1000">
<circle cx="15" cy="100" r="5" stroke="black" fill="black" stroke-width="2" />
<text x="15" y="100" fill="white" font-size="5">21</text><circle cx="28" cy="80" r="5" stroke="black" fill="red" stroke-width="2" />
<text x="28" y="80" fill="white" font-size="5">20</text><circle cx="41" cy="120" r="5" stroke="black" fill="red" stroke-width="2" />
<text x="41" y="120" fill="white" font-size="5">33</text><circle cx="54" cy="100" r="5" stroke="black" fill="black" stroke-width="2" />
<text x="54" y="100" fill="white" font-size="5">32</text><circle cx="67" cy="120" r="5" stroke="black" fill="red" stroke-width="2" />
<text x="67" y="120" fill="white" font-size="5">10</text><circle cx="80" cy="60" r="5" stroke="black" fill="black" stroke-width="2" />
<text x="80" y="60" fill="white" font-size="5">11</text><circle cx="93" cy="100" r="5" stroke="black" fill="black" stroke-width="2" />
<text x="93" y="100" fill="white" font-size="5">28</text><circle cx="106" cy="80" r="5" stroke="black" fill="red" stroke-width="2" />
<text x="106" y="80" fill="white" font-size="5">29</text><circle cx="119" cy="100" r="5" stroke="black" fill="black" stroke-width="2" />
<text x="119" y="100" fill="white" font-size="5">16</text><circle cx="132" cy="120" r="5" stroke="black" fill="red" stroke-width="2" />
<text x="132" y="120" fill="white" font-size="5">36</text><circle cx="145" cy="40" r="5" stroke="black" fill="black" stroke-width="2" />
<text x="145" y="40" fill="white" font-size="5">17</text><circle cx="158" cy="100" r="5" stroke="black" fill="red" stroke-width="2" />
<text x="158" y="100" fill="white" font-size="5">37</text><circle cx="171" cy="80" r="5" stroke="black" fill="black" stroke-width="2" />
<text x="171" y="80" fill="white" font-size="5">2</text><circle cx="184" cy="100" r="5" stroke="black" fill="red" stroke-width="2" />
<text x="184" y="100" fill="white" font-size="5">30</text><circle cx="197" cy="60" r="5" stroke="black" fill="black" stroke-width="2" />
<text x="197" y="60" fill="white" font-size="5">3</text><circle cx="210" cy="100" r="5" stroke="black" fill="red" stroke-width="2" />
<text x="210" y="100" fill="white" font-size="5">31</text><circle cx="223" cy="80" r="5" stroke="black" fill="black" stroke-width="2" />
<text x="223" y="80" fill="white" font-size="5">18</text><circle cx="236" cy="100" r="5" stroke="black" fill="red" stroke-width="2" />
<text x="236" y="100" fill="white" font-size="5">6</text><circle cx="249" cy="20" r="5" stroke="black" fill="black" stroke-width="2" />
<text x="249" y="20" fill="white" font-size="5">12</text><circle cx="262" cy="100" r="5" stroke="black" fill="red" stroke-width="2" />
<text x="262" y="100" fill="white" font-size="5">19</text><circle cx="275" cy="80" r="5" stroke="black" fill="black" stroke-width="2" />
<text x="275" y="80" fill="white" font-size="5">7</text><circle cx="288" cy="60" r="5" stroke="black" fill="black" stroke-width="2" />
<text x="288" y="60" fill="white" font-size="5">13</text><circle cx="301" cy="100" r="5" stroke="black" fill="black" stroke-width="2" />
<text x="301" y="100" fill="white" font-size="5">15</text><circle cx="314" cy="80" r="5" stroke="black" fill="red" stroke-width="2" />
<text x="314" y="80" fill="white" font-size="5">14</text><circle cx="327" cy="100" r="5" stroke="black" fill="black" stroke-width="2" />
<text x="327" y="100" fill="white" font-size="5">38</text><circle cx="340" cy="120" r="5" stroke="black" fill="red" stroke-width="2" />
<text x="340" y="120" fill="white" font-size="5">39</text><circle cx="353" cy="40" r="5" stroke="black" fill="black" stroke-width="2" />
<text x="353" y="40" fill="white" font-size="5">0</text><circle cx="366" cy="120" r="5" stroke="black" fill="black" stroke-width="2" />
<text x="366" y="120" fill="white" font-size="5">1</text><circle cx="379" cy="100" r="5" stroke="black" fill="red" stroke-width="2" />
<text x="379" y="100" fill="white" font-size="5">24</text><circle cx="392" cy="140" r="5" stroke="black" fill="red" stroke-width="2" />
<text x="392" y="140" fill="white" font-size="5">25</text><circle cx="405" cy="120" r="5" stroke="black" fill="black" stroke-width="2" />
<text x="405" y="120" fill="white" font-size="5">34</text><circle cx="418" cy="140" r="5" stroke="black" fill="red" stroke-width="2" />
<text x="418" y="140" fill="white" font-size="5">35</text><circle cx="431" cy="80" r="5" stroke="black" fill="black" stroke-width="2" />
<text x="431" y="80" fill="white" font-size="5">22</text><circle cx="444" cy="120" r="5" stroke="black" fill="red" stroke-width="2" />
<text x="444" y="120" fill="white" font-size="5">26</text><circle cx="457" cy="100" r="5" stroke="black" fill="black" stroke-width="2" />
<text x="457" y="100" fill="white" font-size="5">27</text><circle cx="470" cy="120" r="5" stroke="black" fill="red" stroke-width="2" />
<text x="470" y="120" fill="white" font-size="5">23</text><circle cx="483" cy="60" r="5" stroke="black" fill="red" stroke-width="2" />
<text x="483" y="60" fill="white" font-size="5">8</text><circle cx="496" cy="100" r="5" stroke="black" fill="black" stroke-width="2" />
<text x="496" y="100" fill="white" font-size="5">9</text><circle cx="509" cy="80" r="5" stroke="black" fill="black" stroke-width="2" />
<text x="509" y="80" fill="white" font-size="5">4</text><circle cx="522" cy="100" r="5" stroke="black" fill="black" stroke-width="2" />
<text x="522" y="100" fill="white" font-size="5">5</text></svg>
