<svg>

<rect x="150.000000" y="150.000000" width="150.000000" height="100.000000" stroke="black" fill="yellow" stroke-dasharray="0"/>

<ellipse cx="225.000000" cy="200.000000" rx="75.000000" ry="50.000000" fill="none" stroke="black"/>

<circle cx="200.000000" cy="230.000000" r="35.000000" stroke="black" fill="blue"/>

<rect x="165.000000" y="195.000000" width="70.000000" height="70.000000" stroke="black" fill="none" stroke-dasharray="0"/>

<rect x="350.000000" y="370.000000" width="150.000000" height="100.000000" stroke="magenta" fill="grey" stroke-dasharray="0"/>

<ellipse cx="425.000000" cy="420.000000" rx="75.000000" ry="50.000000" fill="none" stroke="black"/>

<rect x="300.000000" y="320.000000" width="150.000000" height="100.000000" stroke="magenta" fill="purple" stroke-dasharray="0"/>

<ellipse cx="375.000000" cy="370.000000" rx="75.000000" ry="50.000000" fill="none" stroke="black"/>

<circle cx="350.000000" cy="230.000000" r="35.000000" stroke="black" fill="red"/>

<rect x="315.000000" y="195.000000" width="70.000000" height="70.000000" stroke="black" fill="none" stroke-dasharray="0"/>

<circle cx="350.000000" cy="260.000000" r="35.000000" stroke="black" fill="white"/>

<rect x="315.000000" y="225.000000" width="70.000000" height="70.000000" stroke="black" fill="none" stroke-dasharray="0"/>

<circle cx="10.000000" cy="10.000000" r="20.000000" stroke="black" fill="black"/>

<rect x="-10.000000" y="-10.000000" width="40.000000" height="40.000000" stroke="black" fill="none" stroke-dasharray="0"/>

<rect x="600.000000" y="600.000000" width="20.000000" height="20.000000" stroke="black" fill="black" stroke-dasharray="0"/>

<ellipse cx="610.000000" cy="610.000000" rx="10.000000" ry="10.000000" fill="none" stroke="black"/>

</svg>