<svg>

<text x="10.000000" y="10.000000" fill="red"> VAMO LaaaaaaaaaaaaáÁaaaaaaaaaaaa</text>

<circle cx="10.000000" cy="10.000000" r="20.000000" stroke="black" fill="black" stroke-width="1"/>

<rect x="600.000000" y="600.000000" width="20.000000" height="20.000000" stroke="black" fill="black" stroke-dasharray="0" stroke-width="1"/>

<rect x="150.000000" y="150.000000" width="150.000000" height="100.000000" stroke="black" fill="yellow" stroke-dasharray="0" stroke-width="1"/>

<circle cx="200.000000" cy="230.000000" r="35.000000" stroke="black" fill="blue" stroke-width="1"/>

<rect x="300.000000" y="320.000000" width="150.000000" height="100.000000" stroke="magenta" fill="purple" stroke-dasharray="0" stroke-width="1"/>

<rect x="350.000000" y="370.000000" width="150.000000" height="100.000000" stroke="magenta" fill="grey" stroke-dasharray="0" stroke-width="1"/>

<circle cx="350.000000" cy="230.000000" r="35.000000" stroke="black" fill="red" stroke-width="1"/>

<circle cx="350.000000" cy="260.000000" r="35.000000" stroke="black" fill="white" stroke-width="1"/>

<rect x="150.000000" y="150.000000" width="150.000000" height="115.000000" stroke="black" fill="none" stroke-dasharray="0" stroke-width="1"/>

<rect x="300.000000" y="320.000000" width="200.000000" height="150.000000" stroke="black" fill="none" stroke-dasharray="0" stroke-width="1"/>

<rect x="315.000000" y="195.000000" width="70.000000" height="100.000000" stroke="black" fill="none" stroke-dasharray="0" stroke-width="1"/>

<rect x="150.000000" y="150.000000" width="350.000000" height="320.000000" stroke="black" fill="none" stroke-dasharray="5" stroke-width="1"/>

<rect x="165.000000" y="195.000000" width="220.000000" height="100.000000" stroke="black" fill="none" stroke-dasharray="5" stroke-width="1"/>

<circle cx="260.000000" cy="280.000000" r="3.000000" stroke="red" fill="red" stroke-width="1"/>

<line x1="350.000000" y1="260.000000" x2="260.000000" y2="280.000000" stroke="black"/>

<circle cx="360.000000" cy="380.000000" r="3.000000" stroke="green" fill="green" stroke-width="1"/>

<line x1="425.000000" y1="420.000000" x2="360.000000" y2="380.000000" stroke="black"/>

<line x1="200.000000" y1="230.000000" x2="375.000000" y2="370.000000" stroke="black"/>

<text x="287.500000" y="300.000000" fill="black">224.109348</text>

</svg>
